<svg width="22" height="17" viewBox="0 0 22 17" fill="none" xmlns="http://www.w3.org/2000/svg">
<path d="M11.0348 13.3792C8.58276 13.3792 6.59782 11.4812 6.41517 9.07599L3.02396 6.45516C2.57815 7.01443 2.16791 7.60571 1.83687 8.25227C1.76292 8.39856 1.72439 8.56018 1.72439 8.7241C1.72439 8.88802 1.76292 9.04964 1.83687 9.19593C3.59002 12.6166 7.06076 14.9309 11.0348 14.9309C11.9048 14.9309 12.744 14.8016 13.5529 14.5928L11.8754 13.2948C11.5983 13.3483 11.317 13.3766 11.0348 13.3792ZM21.18 15.2574L17.6062 12.4953C18.6918 11.5804 19.5847 10.4588 20.2328 9.1956C20.3068 9.04931 20.3453 8.88769 20.3453 8.72377C20.3453 8.55986 20.3068 8.39823 20.2328 8.25195C18.4797 4.83132 15.0089 2.51695 11.0348 2.51695C9.37043 2.51897 7.73305 2.93799 6.27227 3.73572L2.1595 0.556906C2.10587 0.515173 2.04454 0.484417 1.97902 0.466396C1.9135 0.448375 1.84507 0.443441 1.77764 0.451877C1.71021 0.460314 1.6451 0.481954 1.58604 0.515563C1.52697 0.549171 1.47511 0.594088 1.43342 0.647748L0.798817 1.46468C0.714634 1.57297 0.676913 1.71027 0.693948 1.84637C0.710984 1.98247 0.781382 2.10624 0.889659 2.19044L19.9102 16.891C19.9638 16.9327 20.0251 16.9635 20.0907 16.9815C20.1562 16.9995 20.2246 17.0044 20.292 16.996C20.3595 16.9876 20.4246 16.9659 20.4836 16.9323C20.5427 16.8987 20.5946 16.8538 20.6363 16.8001L21.2712 15.9832C21.3553 15.8749 21.393 15.7375 21.3759 15.6014C21.3588 15.4653 21.2883 15.3416 21.18 15.2574ZM15.2407 10.6669L13.9702 9.68472C14.0772 9.3755 14.134 9.05112 14.1383 8.72394C14.1446 8.24492 14.0385 7.7711 13.8285 7.34054C13.6185 6.90997 13.3104 6.53467 12.929 6.24477C12.5476 5.95487 12.1035 5.75846 11.6325 5.67131C11.1614 5.58416 10.6765 5.6087 10.2166 5.74297C10.4116 6.00712 10.517 6.32665 10.5176 6.65494C10.5128 6.76419 10.4961 6.87259 10.4678 6.97822L8.08814 5.13908C8.91476 4.4483 9.95758 4.0695 11.0348 4.0687C11.6463 4.06836 12.2518 4.18854 12.8167 4.42237C13.3817 4.65619 13.895 4.99908 14.3273 5.43143C14.7597 5.86378 15.1026 6.3771 15.3364 6.94205C15.5702 7.50701 15.6904 8.11251 15.6901 8.72394C15.6901 9.42319 15.5191 10.0749 15.2407 10.6672V10.6669Z" fill="#88B9BE"/>
</svg>
